2200 0 12 0           
7 Spatial 14 ACIS 22.0.2 NT 24 Mon Jun 20 14:47:17 2016 
1 9.9999999999999995e-007 1e-010 
body $12 -1 -1 $-1 $13 $-1 $14 T 0 -1 0 0.30000000000000004 1 0 #
body $15 -1 -1 $-1 $16 $-1 $-1 T -0.20000000000000001 0.8600000000000001 0 0 1.0000000000000002 0 #
body $17 -1 -1 $-1 $18 $-1 $-1 T -0.070000000000000007 0.63 0 0 0.94000000000000017 0 #
body $19 -1 -1 $-1 $20 $-1 $-1 T -0.26000000000000001 0.6100000000000001 0 -0.070000000000000007 0.95000000000000007 0 #
body $21 -1 -1 $-1 $22 $-1 $23 T -0.20000000000000001 -1 0 0 -0.85999999999999999 0 #
body $24 -1 -1 $-1 $25 $-1 $-1 T -0.20000000000000001 -0.46000000000000008 -8.694992273946207e-017 0 -0.32000000000000006 -6.9804867551399126e-017 #
body $26 -1 -1 $-1 $27 $-1 $28 T -0.070000000000000007 -0.93999999999999995 0 0 -0.63 0 #
body $29 -1 -1 $-1 $30 $-1 $31 T -0.26000000000000001 -0.95999999999999996 0 -0.070000000000000007 -0.62 0 #
body $32 -1 -1 $-1 $33 $-1 $34 T -0.059999999999999998 -0.40000000000000002 0 0 0.40000000000000002 0 #
body $35 -1 -1 $-1 $36 $-1 $-1 T -0.20000000000000001 0.32000000000000006 0 0 0.46000000000000008 0 #
body $37 -1 -1 $-1 $38 $-1 $-1 T -0.20000000000000001 -0.70999999999999996 0 0 -0.56999999999999995 0 #
body $39 -1 -1 $-1 $40 $-1 $-1 T -0.20000000000000001 0.56999999999999995 -8.694992273946207e-017 0 0.70999999999999996 -6.9804867551399126e-017 #
string_attrib-name_attrib-gen-attrib $-1 -1 $41 $-1 $0 2 1 1 1 1 1 1 1 1 1 1 1 1 1 0 1 1 1 @17 ATTRIB_XACIS_NAME @10 Rectangle1 #
lump $-1 -1 -1 $-1 $-1 $42 $0 T 0 -1 0 0.30000000000000004 1 0 #
transform $-1 -1 1 0 0 0 1 0 0 0 1 0 0 0 1 no_rotate no_reflect no_shear #
string_attrib-name_attrib-gen-attrib $-1 -1 $43 $-1 $1 2 1 1 1 1 1 1 1 1 1 1 1 1 1 0 1 1 1 @17 ATTRIB_XACIS_NAME @9 Polyline2 #
lump $-1 -1 -1 $-1 $-1 $44 $1 T -0.20000000000000001 0.8600000000000001 0 0 1.0000000000000002 0 #
string_attrib-name_attrib-gen-attrib $-1 -1 $45 $-1 $2 2 1 1 1 1 1 1 1 1 1 1 1 1 1 0 1 1 1 @17 ATTRIB_XACIS_NAME @9 Polyline3 #
lump $-1 -1 -1 $-1 $-1 $46 $2 T -0.070000000000000007 0.63 0 0 0.94000000000000017 0 #
string_attrib-name_attrib-gen-attrib $-1 -1 $47 $-1 $3 2 1 1 1 1 1 1 1 1 1 1 1 1 1 0 1 1 1 @17 ATTRIB_XACIS_NAME @9 Polyline4 #
lump $-1 -1 -1 $-1 $-1 $48 $3 T -0.26000000000000001 0.6100000000000001 0 -0.070000000000000007 0.95000000000000007 0 #
string_attrib-name_attrib-gen-attrib $-1 -1 $49 $-1 $4 2 1 1 1 1 1 1 1 1 1 1 1 1 1 0 1 1 1 @17 ATTRIB_XACIS_NAME @9 Polyline5 #
lump $-1 -1 -1 $-1 $-1 $50 $4 T -0.20000000000000001 -1 0 0 -0.85999999999999999 0 #
transform $-1 -1 1 0 0 0 1 0 0 0 1 0 0 0 1 no_rotate no_reflect no_shear #
string_attrib-name_attrib-gen-attrib $-1 -1 $51 $-1 $5 2 1 1 1 1 1 1 1 1 1 1 1 1 1 0 1 1 1 @17 ATTRIB_XACIS_NAME @9 Polyline6 #
lump $-1 -1 -1 $-1 $-1 $52 $5 T -0.20000000000000001 -0.46000000000000008 -8.694992273946207e-017 0 -0.32000000000000006 -6.9804867551399126e-017 #
string_attrib-name_attrib-gen-attrib $-1 -1 $53 $-1 $6 2 1 1 1 1 1 1 1 1 1 1 1 1 1 0 1 1 1 @17 ATTRIB_XACIS_NAME @9 Polyline7 #
lump $-1 -1 -1 $-1 $-1 $54 $6 T -0.070000000000000007 -0.93999999999999995 0 0 -0.63 0 #
transform $-1 -1 1 0 0 0 1 0 0 0 1 0 0 0 1 no_rotate no_reflect no_shear #
string_attrib-name_attrib-gen-attrib $-1 -1 $55 $-1 $7 2 1 1 1 1 1 1 1 1 1 1 1 1 1 0 1 1 1 @17 ATTRIB_XACIS_NAME @9 Polyline8 #
lump $-1 -1 -1 $-1 $-1 $56 $7 T -0.26000000000000001 -0.95999999999999996 0 -0.070000000000000007 -0.62 0 #
transform $-1 -1 1 0 0 0 1 0 0 0 1 0 0 0 1 no_rotate no_reflect no_shear #
string_attrib-name_attrib-gen-attrib $-1 -1 $57 $-1 $8 2 1 1 1 1 1 1 1 1 1 1 1 1 1 0 1 1 1 @17 ATTRIB_XACIS_NAME @9 Polyline9 #
lump $-1 -1 -1 $-1 $-1 $58 $8 T -0.059999999999999998 -0.40000000000000002 0 0 0.40000000000000002 0 #
transform $-1 -1 1 0 0 0 1 0 0 0 1 0 0 0 1 no_rotate no_reflect no_shear #
string_attrib-name_attrib-gen-attrib $-1 -1 $59 $-1 $9 2 1 1 1 1 1 1 1 1 1 1 1 1 1 0 1 1 1 @17 ATTRIB_XACIS_NAME @10 Polyline10 #
lump $-1 -1 -1 $-1 $-1 $60 $9 T -0.20000000000000001 0.32000000000000006 0 0 0.46000000000000008 0 #
string_attrib-name_attrib-gen-attrib $-1 -1 $61 $-1 $10 2 1 1 1 1 1 1 1 1 1 1 1 1 1 0 1 1 1 @17 ATTRIB_XACIS_NAME @10 Polyline11 #
lump $-1 -1 -1 $-1 $-1 $62 $10 T -0.20000000000000001 -0.70999999999999996 0 0 -0.56999999999999995 0 #
string_attrib-name_attrib-gen-attrib $-1 -1 $63 $-1 $11 2 1 1 1 1 1 1 1 1 1 1 1 1 1 0 1 1 1 @17 ATTRIB_XACIS_NAME @10 Polyline13 #
lump $-1 -1 -1 $-1 $-1 $64 $11 T -0.20000000000000001 0.56999999999999995 -8.694992273946207e-017 0 0.70999999999999996 -6.9804867551399126e-017 #
rgb_color-st-attrib $-1 -1 $65 $12 $0 2 1 2 1 1 1 1 1 1 1 1 1 1 1 0 1 1 1 1 0.50196078431372548 0.25098039215686274 #
shell $-1 -1 -1 $-1 $-1 $-1 $66 $-1 $13 T 0 -1 0 0.30000000000000004 1 0 #
rgb_color-st-attrib $-1 -1 $67 $15 $1 2 1 2 1 1 1 1 1 1 1 1 1 1 1 0 1 1 1 1 0.50196078431372548 1 #
shell $-1 -1 -1 $-1 $-1 $-1 $68 $-1 $16 T -0.20000000000000001 0.8600000000000001 0 0 1.0000000000000002 0 #
rgb_color-st-attrib $-1 -1 $69 $17 $2 2 1 2 1 1 1 1 1 1 1 1 1 1 1 0 1 1 1 0.50196078431372548 0.50196078431372548 1 #
shell $-1 -1 -1 $-1 $-1 $-1 $70 $-1 $18 T -0.070000000000000007 0.63 0 0 0.94000000000000017 0 #
rgb_color-st-attrib $-1 -1 $71 $19 $3 2 1 2 1 1 1 1 1 1 1 1 1 1 1 0 1 1 1 1 1 0 #
shell $-1 -1 -1 $-1 $-1 $-1 $72 $-1 $20 T -0.26000000000000001 0.6100000000000001 0 -0.070000000000000007 0.95000000000000007 0 #
rgb_color-st-attrib $-1 -1 $73 $21 $4 2 1 2 1 1 1 1 1 1 1 1 1 1 1 0 1 1 1 1 0.50196078431372548 1 #
shell $-1 -1 -1 $-1 $-1 $-1 $74 $-1 $22 T -0.20000000000000001 -1 0 0 -0.85999999999999999 0 #
rgb_color-st-attrib $-1 -1 $75 $24 $5 2 1 2 1 1 1 1 1 1 1 1 1 1 1 0 1 1 1 1 0.50196078431372548 1 #
shell $-1 -1 -1 $-1 $-1 $-1 $76 $-1 $25 T -0.20000000000000001 -0.46000000000000008 -8.694992273946207e-017 0 -0.32000000000000006 -6.9804867551399126e-017 #
rgb_color-st-attrib $-1 -1 $77 $26 $6 2 1 2 1 1 1 1 1 1 1 1 1 1 1 0 1 1 1 0.50196078431372548 0.50196078431372548 1 #
shell $-1 -1 -1 $-1 $-1 $-1 $78 $-1 $27 T -0.070000000000000007 -0.93999999999999995 0 0 -0.63 0 #
rgb_color-st-attrib $-1 -1 $79 $29 $7 2 1 2 1 1 1 1 1 1 1 1 1 1 1 0 1 1 1 1 1 0 #
shell $-1 -1 -1 $-1 $-1 $-1 $80 $-1 $30 T -0.26000000000000001 -0.95999999999999996 0 -0.070000000000000007 -0.62 0 #
rgb_color-st-attrib $-1 -1 $81 $32 $8 2 1 2 1 1 1 1 1 1 1 1 1 1 1 0 1 1 1 0.50196078431372548 0.50196078431372548 1 #
shell $-1 -1 -1 $-1 $-1 $-1 $82 $-1 $33 T -0.059999999999999998 -0.40000000000000002 0 0 0.40000000000000002 0 #
rgb_color-st-attrib $-1 -1 $83 $35 $9 2 1 2 1 1 1 1 1 1 1 1 1 1 1 0 1 1 1 1 0.50196078431372548 1 #
shell $-1 -1 -1 $-1 $-1 $-1 $84 $-1 $36 T -0.20000000000000001 0.32000000000000006 0 0 0.46000000000000008 0 #
rgb_color-st-attrib $-1 -1 $85 $37 $10 2 1 2 1 1 1 1 1 1 1 1 1 1 1 0 1 1 1 1 0.50196078431372548 1 #
shell $-1 -1 -1 $-1 $-1 $-1 $86 $-1 $38 T -0.20000000000000001 -0.70999999999999996 0 0 -0.56999999999999995 0 #
rgb_color-st-attrib $-1 -1 $87 $39 $11 2 1 2 1 1 1 1 1 1 1 1 1 1 1 0 1 1 1 1 0.50196078431372548 1 #
shell $-1 -1 -1 $-1 $-1 $-1 $88 $-1 $40 T -0.20000000000000001 0.56999999999999995 -8.694992273946207e-017 0 0.70999999999999996 -6.9804867551399126e-017 #
properties-ansoft-attrib $-1 -1 $-1 $41 $0 1 1 1 1 1 1 1 1 1 1 1 1 0 1 0 1 1 1 @10 Rectangle1 457 0 0 -2130739136 #
face $89 -1 -1 $-1 $-1 $90 $42 $-1 $91 forward double out T 0 -1 0 0.30000000000000004 1 0 F #
properties-ansoft-attrib $-1 -1 $-1 $43 $1 1 1 1 1 1 1 1 1 1 1 1 1 0 1 0 1 1 1 @9 Polyline2 485 0 0 -2130738945 #
face $92 -1 -1 $-1 $-1 $93 $44 $-1 $94 reversed double out T -0.20000000000000001 0.8600000000000001 0 0 1.0000000000000002 0 F #
properties-ansoft-attrib $-1 -1 $-1 $45 $2 1 1 1 1 1 1 1 1 1 1 1 1 0 1 0 1 1 1 @9 Polyline3 504 0 0 -2139062017 #
face $95 -1 -1 $-1 $-1 $96 $46 $-1 $97 reversed double out T -0.070000000000000007 0.63 0 0 0.94000000000000017 0 F #
properties-ansoft-attrib $-1 -1 $-1 $47 $3 1 1 1 1 1 1 1 1 1 1 1 1 0 1 0 1 1 1 @9 Polyline4 571 0 0 -2130706688 #
face $98 -1 -1 $-1 $-1 $99 $48 $-1 $100 reversed double out T -0.26000000000000001 0.6100000000000001 0 -0.070000000000000007 0.95000000000000007 0 F #
properties-ansoft-attrib $-1 -1 $-1 $49 $4 1 1 1 1 1 1 1 1 1 1 1 1 0 1 0 1 1 1 @9 Polyline5 682 0 0 -2130738945 #
face $101 -1 -1 $-1 $-1 $102 $50 $-1 $103 reversed double out T -0.20000000000000001 -1 0 0 -0.85999999999999999 0 F #
properties-ansoft-attrib $-1 -1 $-1 $51 $5 1 1 1 1 1 1 1 1 1 1 1 1 0 1 0 1 1 1 @9 Polyline6 698 0 0 -2130738945 #
face $104 -1 -1 $-1 $-1 $105 $52 $-1 $106 reversed double out T -0.20000000000000001 -0.46000000000000008 -8.694992273946207e-017 0 -0.32000000000000006 -6.9804867551399126e-017 F #
properties-ansoft-attrib $-1 -1 $-1 $53 $6 1 1 1 1 1 1 1 1 1 1 1 1 0 1 0 1 1 1 @9 Polyline7 717 0 0 -2139062017 #
face $107 -1 -1 $-1 $-1 $108 $54 $-1 $109 reversed double out T -0.070000000000000007 -0.93999999999999995 0 0 -0.63 0 F #
properties-ansoft-attrib $-1 -1 $-1 $55 $7 1 1 1 1 1 1 1 1 1 1 1 1 0 1 0 1 1 1 @9 Polyline8 729 0 0 -2130706688 #
face $110 -1 -1 $-1 $-1 $111 $56 $-1 $112 reversed double out T -0.26000000000000001 -0.95999999999999996 0 -0.070000000000000007 -0.62 0 F #
properties-ansoft-attrib $-1 -1 $-1 $57 $8 1 1 1 1 1 1 1 1 1 1 1 1 0 1 0 1 1 1 @9 Polyline9 761 0 0 -2139062017 #
face $113 -1 -1 $-1 $-1 $114 $58 $-1 $115 reversed double out T -0.059999999999999998 -0.40000000000000002 0 0 0.40000000000000002 0 F #
properties-ansoft-attrib $-1 -1 $-1 $59 $9 1 1 1 1 1 1 1 1 1 1 1 1 0 1 0 1 1 1 @10 Polyline10 773 0 0 -2130738945 #
face $116 -1 -1 $-1 $-1 $117 $60 $-1 $118 reversed double out T -0.20000000000000001 0.32000000000000006 0 0 0.46000000000000008 0 F #
properties-ansoft-attrib $-1 -1 $-1 $61 $10 1 1 1 1 1 1 1 1 1 1 1 1 0 1 0 1 1 1 @10 Polyline11 794 0 0 -2130738945 #
face $119 -1 -1 $-1 $-1 $120 $62 $-1 $121 reversed double out T -0.20000000000000001 -0.70999999999999996 0 0 -0.56999999999999995 0 F #
properties-ansoft-attrib $-1 -1 $-1 $63 $11 1 1 1 1 1 1 1 1 1 1 1 1 0 1 0 1 1 1 @10 Polyline13 832 0 0 -2130738945 #
face $122 -1 -1 $-1 $-1 $123 $64 $-1 $124 reversed double out T -0.20000000000000001 0.56999999999999995 -8.694992273946207e-017 0 0.70999999999999996 -6.9804867551399126e-017 F #
fctd_mark-eye-attrib $-1 -1 $-1 $-1 $66 1 1 1 1 1 1 1 1 1 1 1 1 1 1 0 1 1 1 #
loop $-1 -1 -1 $-1 $-1 $125 $66 T 0 -1 0 0.30000000000000004 1 0 unknown #
plane-surface $-1 -1 -1 $-1 0.14999999999999999 1.4261758221469381e-018 0 0 0 1 1 0 0 forward_v I I I I #
fctd_mark-eye-attrib $-1 -1 $-1 $-1 $68 1 1 1 1 1 1 1 1 1 1 1 1 1 1 0 1 1 1 #
loop $-1 -1 -1 $-1 $-1 $126 $68 T -0.20000000000000001 0.8600000000000001 0 0 1.0000000000000002 0 unknown #
plane-surface $-1 -1 -1 $-1 -0.11647058823529412 0.9464705882352944 0 0 0 1 1 0 0 reverse_v I I I I #
fctd_mark-eye-attrib $-1 -1 $-1 $-1 $70 1 1 1 1 1 1 1 1 1 1 1 1 1 1 0 1 1 1 #
loop $-1 -1 -1 $-1 $-1 $127 $70 T -0.070000000000000007 0.63 0 0 0.94000000000000017 0 unknown #
plane-surface $-1 -1 -1 $-1 -0.035000000000000003 0.78500000000000014 0 0 0 1 1 0 0 forward_v I I I I #
fctd_mark-eye-attrib $-1 -1 $-1 $-1 $72 1 1 1 1 1 1 1 1 1 1 1 1 1 1 0 1 1 1 #
loop $-1 -1 -1 $-1 $-1 $128 $72 T -0.26000000000000001 0.6100000000000001 0 -0.070000000000000007 0.95000000000000007 0 unknown #
plane-surface $-1 -1 -1 $-1 -0.16898550724637676 0.78210144927536251 0 0 0 1 1 0 0 forward_v I I I I #
fctd_mark-eye-attrib $-1 -1 $-1 $-1 $74 1 1 1 1 1 1 1 1 1 1 1 1 1 1 0 1 1 1 #
loop $-1 -1 -1 $-1 $-1 $129 $74 T -0.20000000000000001 -1 0 0 -0.85999999999999999 0 unknown #
plane-surface $-1 -1 -1 $-1 -0.11647058823529412 -0.94647058823529417 0 0 0 1 1 0 0 forward_v I I I I #
fctd_mark-eye-attrib $-1 -1 $-1 $-1 $76 1 1 1 1 1 1 1 1 1 1 1 1 1 1 0 1 1 1 #
loop $-1 -1 -1 $-1 $-1 $130 $76 T -0.20000000000000001 -0.46000000000000008 -8.694992273946207e-017 0 -0.32000000000000006 -6.9804867551399126e-017 unknown #
plane-surface $-1 -1 -1 $-1 -0.11647058823529412 -0.40647058823529425 -7.6360329829187898e-017 0 -1.2246467991473532e-016 -1 1 0 0 reverse_v I I I I #
fctd_mark-eye-attrib $-1 -1 $-1 $-1 $78 1 1 1 1 1 1 1 1 1 1 1 1 1 1 0 1 1 1 #
loop $-1 -1 -1 $-1 $-1 $131 $78 T -0.070000000000000007 -0.93999999999999995 0 0 -0.63 0 unknown #
plane-surface $-1 -1 -1 $-1 -0.035000000000000003 -0.78499999999999992 0 0 0 1 1 0 0 forward_v I I I I #
fctd_mark-eye-attrib $-1 -1 $-1 $-1 $80 1 1 1 1 1 1 1 1 1 1 1 1 1 1 0 1 1 1 #
loop $-1 -1 -1 $-1 $-1 $132 $80 T -0.26000000000000001 -0.95999999999999996 0 -0.070000000000000007 -0.62 0 unknown #
plane-surface $-1 -1 -1 $-1 -0.16898550724637679 -0.78789855072463744 0 0 0 1 1 0 0 forward_v I I I I #
fctd_mark-eye-attrib $-1 -1 $-1 $-1 $82 1 1 1 1 1 1 1 1 1 1 1 1 1 1 0 1 1 1 #
loop $-1 -1 -1 $-1 $-1 $133 $82 T -0.059999999999999998 -0.40000000000000002 0 0 0.40000000000000002 0 unknown #
plane-surface $-1 -1 -1 $-1 -0.030000000000000006 -5.0978131746464309e-019 0 0 0 1 1 0 0 forward_v I I I I #
fctd_mark-eye-attrib $-1 -1 $-1 $-1 $84 1 1 1 1 1 1 1 1 1 1 1 1 1 1 0 1 1 1 #
loop $-1 -1 -1 $-1 $-1 $134 $84 T -0.20000000000000001 0.32000000000000006 0 0 0.46000000000000008 0 unknown #
plane-surface $-1 -1 -1 $-1 -0.11647058823529412 0.40647058823529425 0 0 0 1 1 0 0 reverse_v I I I I #
fctd_mark-eye-attrib $-1 -1 $-1 $-1 $86 1 1 1 1 1 1 1 1 1 1 1 1 1 1 0 1 1 1 #
loop $-1 -1 -1 $-1 $-1 $135 $86 T -0.20000000000000001 -0.70999999999999996 0 0 -0.56999999999999995 0 unknown #
plane-surface $-1 -1 -1 $-1 -0.11647058823529412 -0.62352941176470578 0 0 0 1 1 0 0 reverse_v I I I I #
fctd_mark-eye-attrib $-1 -1 $-1 $-1 $88 1 1 1 1 1 1 1 1 1 1 1 1 1 1 0 1 1 1 #
loop $-1 -1 -1 $-1 $-1 $136 $88 T -0.20000000000000001 0.56999999999999995 -8.694992273946207e-017 0 0.70999999999999996 -6.9804867551399126e-017 unknown #
plane-surface $-1 -1 -1 $-1 -0.11647058823529412 0.62352941176470578 -7.6360329829187898e-017 0 -1.2246467991473532e-016 -1 1 0 0 reverse_v I I I I #
coedge $-1 -1 -1 $-1 $137 $138 $-1 $139 forward $90 $-1 #
coedge $-1 -1 -1 $-1 $140 $141 $-1 $142 reversed $93 $-1 #
coedge $-1 -1 -1 $-1 $143 $144 $-1 $145 forward $96 $-1 #
coedge $-1 -1 -1 $-1 $146 $147 $-1 $148 forward $99 $-1 #
coedge $-1 -1 -1 $-1 $149 $150 $-1 $151 forward $102 $-1 #
coedge $-1 -1 -1 $-1 $152 $153 $-1 $154 reversed $105 $-1 #
coedge $-1 -1 -1 $-1 $155 $156 $-1 $157 forward $108 $-1 #
coedge $-1 -1 -1 $-1 $158 $159 $-1 $160 forward $111 $-1 #
coedge $-1 -1 -1 $-1 $161 $162 $-1 $163 forward $114 $-1 #
coedge $-1 -1 -1 $-1 $164 $165 $-1 $166 reversed $117 $-1 #
coedge $-1 -1 -1 $-1 $167 $168 $-1 $169 reversed $120 $-1 #
coedge $-1 -1 -1 $-1 $170 $171 $-1 $172 reversed $123 $-1 #
coedge $-1 -1 -1 $-1 $173 $125 $-1 $174 forward $90 $-1 #
coedge $-1 -1 -1 $-1 $125 $173 $-1 $175 forward $90 $-1 #
edge $-1 -1 -1 $-1 $176 0 $177 0.30000000000000004 $125 $178 forward @7 unknown T 0 -1 0 0.30000000000000004 -1 0 #
coedge $-1 -1 -1 $-1 $179 $126 $-1 $180 reversed $93 $-1 #
coedge $-1 -1 -1 $-1 $126 $181 $-1 $182 reversed $93 $-1 #
edge $-1 -1 -1 $-1 $183 0 $184 0.20000000000000001 $126 $185 forward @7 unknown T -0.20000000000000001 1.0000000000000002 0 0 1.0000000000000002 0 #
coedge $-1 -1 -1 $-1 $186 $127 $-1 $187 forward $96 $-1 #
coedge $-1 -1 -1 $-1 $127 $186 $-1 $188 forward $96 $-1 #
edge $-1 -1 -1 $-1 $189 0 $190 0.31000000000000016 $127 $191 forward @7 unknown T -0.070000000000000007 0.63 0 -0.070000000000000007 0.94000000000000017 0 #
coedge $-1 -1 -1 $-1 $192 $128 $-1 $193 forward $99 $-1 #
coedge $-1 -1 -1 $-1 $128 $194 $-1 $195 forward $99 $-1 #
edge $-1 -1 -1 $-1 $196 0 $197 0.059999999999999998 $128 $198 forward @7 unknown T -0.26000000000000001 0.6100000000000001 0 -0.20000000000000001 0.6100000000000001 0 #
coedge $-1 -1 -1 $-1 $199 $129 $-1 $200 forward $102 $-1 #
coedge $-1 -1 -1 $-1 $129 $201 $-1 $202 forward $102 $-1 #
edge $-1 -1 -1 $-1 $203 0 $204 0.20000000000000001 $129 $205 forward @7 unknown T -0.20000000000000001 -1 0 0 -1 0 #
coedge $-1 -1 -1 $-1 $206 $130 $-1 $207 reversed $105 $-1 #
coedge $-1 -1 -1 $-1 $130 $208 $-1 $209 reversed $105 $-1 #
edge $-1 -1 -1 $-1 $210 0 $211 0.20000000000000001 $130 $212 forward @7 unknown T -0.20000000000000001 -0.46000000000000008 -6.9804867551399126e-017 0 -0.46000000000000008 -6.9804867551399126e-017 #
coedge $-1 -1 -1 $-1 $213 $131 $-1 $214 forward $108 $-1 #
coedge $-1 -1 -1 $-1 $131 $213 $-1 $215 forward $108 $-1 #
edge $-1 -1 -1 $-1 $216 0 $217 0.30999999999999994 $131 $218 forward @7 unknown T -0.070000000000000007 -0.93999999999999995 0 -0.070000000000000007 -0.63 0 #
coedge $-1 -1 -1 $-1 $219 $132 $-1 $220 forward $111 $-1 #
coedge $-1 -1 -1 $-1 $132 $221 $-1 $222 forward $111 $-1 #
edge $-1 -1 -1 $-1 $223 0 $224 0.059999999999999998 $132 $225 forward @7 unknown T -0.26000000000000001 -0.95999999999999996 0 -0.20000000000000001 -0.95999999999999996 0 #
coedge $-1 -1 -1 $-1 $226 $133 $-1 $227 forward $114 $-1 #
coedge $-1 -1 -1 $-1 $133 $226 $-1 $228 forward $114 $-1 #
edge $-1 -1 -1 $-1 $229 0 $230 0.059999999999999998 $133 $231 forward @7 unknown T -0.059999999999999998 -0.40000000000000002 0 0 -0.40000000000000002 0 #
coedge $-1 -1 -1 $-1 $232 $134 $-1 $233 reversed $117 $-1 #
coedge $-1 -1 -1 $-1 $134 $234 $-1 $235 reversed $117 $-1 #
edge $-1 -1 -1 $-1 $236 0 $237 0.20000000000000001 $134 $238 forward @7 unknown T -0.20000000000000001 0.46000000000000008 0 0 0.46000000000000008 0 #
coedge $-1 -1 -1 $-1 $239 $135 $-1 $240 reversed $120 $-1 #
coedge $-1 -1 -1 $-1 $135 $241 $-1 $242 reversed $120 $-1 #
edge $-1 -1 -1 $-1 $243 0 $244 0.20000000000000001 $135 $245 forward @7 unknown T -0.20000000000000001 -0.56999999999999995 0 0 -0.56999999999999995 0 #
coedge $-1 -1 -1 $-1 $246 $136 $-1 $247 reversed $123 $-1 #
coedge $-1 -1 -1 $-1 $136 $248 $-1 $249 reversed $123 $-1 #
edge $-1 -1 -1 $-1 $250 0 $251 0.20000000000000001 $136 $252 forward @7 unknown T -0.20000000000000001 0.56999999999999995 -6.9804867551399126e-017 0 0.56999999999999995 -6.9804867551399126e-017 #
coedge $-1 -1 -1 $-1 $138 $137 $-1 $253 forward $90 $-1 #
edge $-1 -1 -1 $-1 $177 0 $254 2 $137 $255 forward @7 unknown T 0.30000000000000004 -1 0 0.30000000000000004 1 0 #
edge $-1 -1 -1 $-1 $256 0 $176 2 $138 $257 forward @7 unknown T 0 -1 0 0 1 0 #
vertex $-1 -1 -1 $-1 $139 $258 #
vertex $-1 -1 -1 $-1 $139 $259 #
straight-curve $-1 -1 -1 $-1 0 -1 0 1 0 0 I I #
coedge $-1 -1 -1 $-1 $260 $140 $-1 $261 reversed $93 $-1 #
edge $-1 -1 -1 $-1 $262 0 $183 0.060000000000000053 $140 $263 forward @7 unknown T 0 0.94000000000000017 0 0 1.0000000000000002 0 #
coedge $-1 -1 -1 $-1 $141 $260 $-1 $264 reversed $93 $-1 #
edge $-1 -1 -1 $-1 $184 0 $265 0.14000000000000001 $141 $266 forward @7 unknown T -0.20000000000000001 0.8600000000000001 0 -0.20000000000000001 1.0000000000000002 0 #
vertex $-1 -1 -1 $-1 $142 $267 #
vertex $-1 -1 -1 $-1 $142 $268 #
straight-curve $-1 -1 -1 $-1 0 1.0000000000000002 0 -1 0 0 I I #
coedge $-1 -1 -1 $-1 $144 $143 $-1 $269 forward $96 $-1 #
edge $-1 -1 -1 $-1 $190 0 $270 0.070000000000000007 $143 $271 forward @7 unknown T -0.070000000000000007 0.94000000000000017 0 0 0.94000000000000017 0 #
edge $-1 -1 -1 $-1 $272 0 $189 0.070000000000000007 $144 $273 forward @7 unknown T -0.070000000000000007 0.63 0 0 0.63 0 #
vertex $-1 -1 -1 $-1 $145 $274 #
vertex $-1 -1 -1 $-1 $145 $275 #
straight-curve $-1 -1 -1 $-1 -0.070000000000000007 0.63 0 0 1 0 I I #
coedge $-1 -1 -1 $-1 $276 $146 $-1 $277 forward $99 $-1 #
edge $-1 -1 -1 $-1 $197 0 $278 0.33999999999999997 $146 $279 forward @7 unknown T -0.26000000000000001 0.6100000000000001 0 -0.26000000000000001 0.95000000000000007 0 #
coedge $-1 -1 -1 $-1 $147 $280 $-1 $281 forward $99 $-1 #
edge $-1 -1 -1 $-1 $282 0 $196 0.099999999999999978 $147 $283 forward @7 unknown T -0.20000000000000001 0.6100000000000001 0 -0.20000000000000001 0.71000000000000008 0 #
vertex $-1 -1 -1 $-1 $148 $284 #
vertex $-1 -1 -1 $-1 $148 $285 #
straight-curve $-1 -1 -1 $-1 -0.20000000000000001 0.6100000000000001 0 -1 0 0 I I #
coedge $-1 -1 -1 $-1 $286 $149 $-1 $287 forward $102 $-1 #
edge $-1 -1 -1 $-1 $204 0 $288 0.14000000000000001 $149 $289 forward @7 unknown T -0.20000000000000001 -1 0 -0.20000000000000001 -0.85999999999999999 0 #
coedge $-1 -1 -1 $-1 $150 $286 $-1 $290 forward $102 $-1 #
edge $-1 -1 -1 $-1 $291 0 $203 0.060000000000000053 $150 $292 forward @7 unknown T 0 -1 0 0 -0.93999999999999995 0 #
vertex $-1 -1 -1 $-1 $151 $293 #
vertex $-1 -1 -1 $-1 $151 $294 #
straight-curve $-1 -1 -1 $-1 0 -1 0 -1 0 0 I I #
coedge $-1 -1 -1 $-1 $295 $152 $-1 $296 reversed $105 $-1 #
edge $-1 -1 -1 $-1 $297 0 $210 0.060000000000000053 $152 $298 forward @7 unknown T 0 -0.46000000000000008 -7.7152748346283254e-017 0 -0.40000000000000002 -6.9804867551399126e-017 #
coedge $-1 -1 -1 $-1 $153 $295 $-1 $299 reversed $105 $-1 #
edge $-1 -1 -1 $-1 $211 0 $300 0.14000000000000001 $153 $301 forward @7 unknown T -0.20000000000000001 -0.46000000000000008 -8.694992273946207e-017 -0.20000000000000001 -0.32000000000000006 -6.9804867551399126e-017 #
vertex $-1 -1 -1 $-1 $154 $302 #
vertex $-1 -1 -1 $-1 $154 $303 #
straight-curve $-1 -1 -1 $-1 0 -0.46000000000000008 -6.9804867551399126e-017 -1 0 0 I I #
coedge $-1 -1 -1 $-1 $156 $155 $-1 $304 forward $108 $-1 #
edge $-1 -1 -1 $-1 $217 0 $305 0.070000000000000007 $155 $306 forward @7 unknown T -0.070000000000000007 -0.63 0 0 -0.63 0 #
edge $-1 -1 -1 $-1 $307 0 $216 0.070000000000000007 $156 $308 forward @7 unknown T -0.070000000000000007 -0.93999999999999995 0 0 -0.93999999999999995 0 #
vertex $-1 -1 -1 $-1 $157 $309 #
vertex $-1 -1 -1 $-1 $157 $310 #
straight-curve $-1 -1 -1 $-1 -0.070000000000000007 -0.93999999999999995 0 0 1 0 I I #
coedge $-1 -1 -1 $-1 $311 $158 $-1 $312 forward $111 $-1 #
edge $-1 -1 -1 $-1 $224 0 $313 0.33999999999999997 $158 $314 forward @7 unknown T -0.26000000000000001 -0.95999999999999996 0 -0.26000000000000001 -0.62 0 #
coedge $-1 -1 -1 $-1 $159 $315 $-1 $316 forward $111 $-1 #
edge $-1 -1 -1 $-1 $317 0 $223 0.099999999999999978 $159 $318 forward @7 unknown T -0.20000000000000001 -0.95999999999999996 0 -0.20000000000000001 -0.85999999999999999 0 #
vertex $-1 -1 -1 $-1 $160 $319 #
vertex $-1 -1 -1 $-1 $160 $320 #
straight-curve $-1 -1 -1 $-1 -0.20000000000000001 -0.95999999999999996 0 -1 0 0 I I #
coedge $-1 -1 -1 $-1 $162 $161 $-1 $321 forward $114 $-1 #
edge $-1 -1 -1 $-1 $230 0 $322 0.80000000000000004 $161 $323 forward @7 unknown T -0.059999999999999998 -0.40000000000000002 0 -0.059999999999999998 0.40000000000000002 0 #
edge $-1 -1 -1 $-1 $324 0 $229 0.80000000000000004 $162 $325 forward @7 unknown T 0 -0.40000000000000002 0 0 0.40000000000000002 0 #
vertex $-1 -1 -1 $-1 $163 $326 #
vertex $-1 -1 -1 $-1 $163 $327 #
straight-curve $-1 -1 -1 $-1 0 -0.40000000000000002 0 -1 0 0 I I #
coedge $-1 -1 -1 $-1 $328 $164 $-1 $329 reversed $117 $-1 #
edge $-1 -1 -1 $-1 $330 0 $236 0.060000000000000053 $164 $331 forward @7 unknown T 0 0.40000000000000002 0 0 0.46000000000000008 0 #
coedge $-1 -1 -1 $-1 $165 $328 $-1 $332 reversed $117 $-1 #
edge $-1 -1 -1 $-1 $237 0 $333 0.14000000000000001 $165 $334 forward @7 unknown T -0.20000000000000001 0.32000000000000006 0 -0.20000000000000001 0.46000000000000008 0 #
vertex $-1 -1 -1 $-1 $166 $335 #
vertex $-1 -1 -1 $-1 $166 $336 #
straight-curve $-1 -1 -1 $-1 0 0.46000000000000008 0 -1 0 0 I I #
coedge $-1 -1 -1 $-1 $337 $167 $-1 $338 reversed $120 $-1 #
edge $-1 -1 -1 $-1 $339 0 $243 0.060000000000000053 $167 $340 forward @7 unknown T 0 -0.63 0 0 -0.56999999999999995 0 #
coedge $-1 -1 -1 $-1 $168 $337 $-1 $341 reversed $120 $-1 #
edge $-1 -1 -1 $-1 $244 0 $342 0.14000000000000001 $168 $343 forward @7 unknown T -0.20000000000000001 -0.70999999999999996 0 -0.20000000000000001 -0.56999999999999995 0 #
vertex $-1 -1 -1 $-1 $169 $344 #
vertex $-1 -1 -1 $-1 $169 $345 #
straight-curve $-1 -1 -1 $-1 0 -0.56999999999999995 0 -1 0 0 I I #
coedge $-1 -1 -1 $-1 $346 $170 $-1 $347 reversed $123 $-1 #
edge $-1 -1 -1 $-1 $348 0 $250 0.060000000000000053 $170 $349 forward @7 unknown T 0 0.56999999999999995 -7.7152748346283254e-017 0 0.63 -6.9804867551399126e-017 #
coedge $-1 -1 -1 $-1 $171 $346 $-1 $350 reversed $123 $-1 #
edge $-1 -1 -1 $-1 $251 0 $351 0.14000000000000001 $171 $352 forward @7 unknown T -0.20000000000000001 0.56999999999999995 -8.694992273946207e-017 -0.20000000000000001 0.70999999999999996 -6.9804867551399126e-017 #
vertex $-1 -1 -1 $-1 $172 $353 #
vertex $-1 -1 -1 $-1 $172 $354 #
straight-curve $-1 -1 -1 $-1 0 0.56999999999999995 -6.9804867551399126e-017 -1 -0 0 I I #
edge $-1 -1 -1 $-1 $254 0 $256 0.30000000000000004 $173 $355 forward @7 unknown T 0 1 0 0.30000000000000004 1 0 #
vertex $-1 -1 -1 $-1 $174 $356 #
straight-curve $-1 -1 -1 $-1 0.30000000000000004 -1 0 0 1 0 I I #
vertex $-1 -1 -1 $-1 $253 $357 #
straight-curve $-1 -1 -1 $-1 0 1 0 0 -1 0 I I #
point $-1 -1 -1 $-1 0 -1 0 #
point $-1 -1 -1 $-1 0.30000000000000004 -1 0 #
coedge $-1 -1 -1 $-1 $181 $179 $-1 $358 reversed $93 $-1 #
edge $-1 -1 -1 $-1 $359 0 $262 0.14000000000000001 $179 $360 forward @7 unknown T -0.14000000000000001 0.94000000000000017 0 0 0.94000000000000017 0 #
vertex $-1 -1 -1 $-1 $261 $361 #
straight-curve $-1 -1 -1 $-1 0 0.94000000000000017 0 0 1 0 I I #
edge $-1 -1 -1 $-1 $265 0 $362 0.059999999999999998 $181 $363 forward @7 unknown T -0.20000000000000001 0.8600000000000001 0 -0.14000000000000001 0.8600000000000001 0 #
vertex $-1 -1 -1 $-1 $182 $364 #
straight-curve $-1 -1 -1 $-1 -0.20000000000000001 1.0000000000000002 0 0 -1 0 I I #
point $-1 -1 -1 $-1 0 1.0000000000000002 0 #
point $-1 -1 -1 $-1 -0.20000000000000001 1.0000000000000002 0 #
edge $-1 -1 -1 $-1 $270 0 $272 0.31000000000000016 $186 $365 forward @7 unknown T 0 0.63 0 0 0.94000000000000017 0 #
vertex $-1 -1 -1 $-1 $187 $366 #
straight-curve $-1 -1 -1 $-1 -0.070000000000000007 0.94000000000000017 0 1 0 0 I I #
vertex $-1 -1 -1 $-1 $269 $367 #
straight-curve $-1 -1 -1 $-1 0 0.63 0 -1 0 0 I I #
point $-1 -1 -1 $-1 -0.070000000000000007 0.63 0 #
point $-1 -1 -1 $-1 -0.070000000000000007 0.94000000000000017 0 #
coedge $-1 -1 -1 $-1 $368 $192 $-1 $369 forward $99 $-1 #
edge $-1 -1 -1 $-1 $278 0 $370 0.059999999999999998 $192 $371 forward @7 unknown T -0.26000000000000001 0.95000000000000007 0 -0.20000000000000001 0.95000000000000007 0 #
vertex $-1 -1 -1 $-1 $193 $372 #
straight-curve $-1 -1 -1 $-1 -0.26000000000000001 0.6100000000000001 0 0 1 0 I I #
coedge $-1 -1 -1 $-1 $194 $373 $-1 $374 forward $99 $-1 #
edge $-1 -1 -1 $-1 $375 0 $282 0.059999999999999998 $194 $376 forward @7 unknown T -0.20000000000000001 0.71000000000000008 0 -0.14000000000000001 0.71000000000000008 0 #
vertex $-1 -1 -1 $-1 $281 $377 #
straight-curve $-1 -1 -1 $-1 -0.20000000000000001 0.71000000000000008 0 0 -1 0 I I #
point $-1 -1 -1 $-1 -0.20000000000000001 0.6100000000000001 0 #
point $-1 -1 -1 $-1 -0.26000000000000001 0.6100000000000001 0 #
coedge $-1 -1 -1 $-1 $201 $199 $-1 $378 forward $102 $-1 #
edge $-1 -1 -1 $-1 $288 0 $379 0.059999999999999998 $199 $380 forward @7 unknown T -0.20000000000000001 -0.85999999999999999 0 -0.14000000000000001 -0.85999999999999999 0 #
vertex $-1 -1 -1 $-1 $200 $381 #
straight-curve $-1 -1 -1 $-1 -0.20000000000000001 -1 0 0 1 0 I I #
edge $-1 -1 -1 $-1 $382 0 $291 0.14000000000000001 $201 $383 forward @7 unknown T -0.14000000000000001 -0.93999999999999995 0 0 -0.93999999999999995 0 #
vertex $-1 -1 -1 $-1 $290 $384 #
straight-curve $-1 -1 -1 $-1 0 -0.93999999999999995 0 0 -1 0 I I #
point $-1 -1 -1 $-1 0 -1 0 #
point $-1 -1 -1 $-1 -0.20000000000000001 -1 0 #
coedge $-1 -1 -1 $-1 $208 $206 $-1 $385 reversed $105 $-1 #
edge $-1 -1 -1 $-1 $386 0 $297 0.14000000000000001 $206 $387 forward @7 unknown T -0.14000000000000001 -0.40000000000000002 -7.7152748346283254e-017 0 -0.40000000000000002 -7.7152748346283254e-017 #
vertex $-1 -1 -1 $-1 $296 $388 #
straight-curve $-1 -1 -1 $-1 0 -0.40000000000000002 -7.7152748346283254e-017 0 -1 1.2246467991473532e-016 I I #
edge $-1 -1 -1 $-1 $300 0 $389 0.059999999999999998 $208 $390 forward @7 unknown T -0.20000000000000001 -0.32000000000000006 -8.694992273946207e-017 -0.14000000000000001 -0.32000000000000006 -8.694992273946207e-017 #
vertex $-1 -1 -1 $-1 $209 $391 #
straight-curve $-1 -1 -1 $-1 -0.20000000000000001 -0.46000000000000008 -6.9804867551399126e-017 0 1 -1.2246467991473532e-016 I I #
point $-1 -1 -1 $-1 0 -0.46000000000000008 -6.9804867551399126e-017 #
point $-1 -1 -1 $-1 -0.20000000000000001 -0.46000000000000008 -6.9804867551399126e-017 #
edge $-1 -1 -1 $-1 $305 0 $307 0.30999999999999994 $213 $392 forward @7 unknown T 0 -0.93999999999999995 0 0 -0.63 0 #
vertex $-1 -1 -1 $-1 $214 $393 #
straight-curve $-1 -1 -1 $-1 -0.070000000000000007 -0.63 0 1 0 0 I I #
vertex $-1 -1 -1 $-1 $304 $394 #
straight-curve $-1 -1 -1 $-1 0 -0.93999999999999995 0 -1 0 0 I I #
point $-1 -1 -1 $-1 -0.070000000000000007 -0.93999999999999995 0 #
point $-1 -1 -1 $-1 -0.070000000000000007 -0.63 0 #
coedge $-1 -1 -1 $-1 $395 $219 $-1 $396 forward $111 $-1 #
edge $-1 -1 -1 $-1 $313 0 $397 0.059999999999999998 $219 $398 forward @7 unknown T -0.26000000000000001 -0.62 0 -0.20000000000000001 -0.62 0 #
vertex $-1 -1 -1 $-1 $220 $399 #
straight-curve $-1 -1 -1 $-1 -0.26000000000000001 -0.95999999999999996 0 0 1 0 I I #
coedge $-1 -1 -1 $-1 $221 $400 $-1 $401 forward $111 $-1 #
edge $-1 -1 -1 $-1 $402 0 $317 0.059999999999999998 $221 $403 forward @7 unknown T -0.20000000000000001 -0.85999999999999999 0 -0.14000000000000001 -0.85999999999999999 0 #
vertex $-1 -1 -1 $-1 $316 $404 #
straight-curve $-1 -1 -1 $-1 -0.20000000000000001 -0.85999999999999999 0 0 -1 0 I I #
point $-1 -1 -1 $-1 -0.20000000000000001 -0.95999999999999996 0 #
point $-1 -1 -1 $-1 -0.26000000000000001 -0.95999999999999996 0 #
edge $-1 -1 -1 $-1 $322 0 $324 0.059999999999999998 $226 $405 forward @7 unknown T -0.059999999999999998 0.40000000000000002 0 0 0.40000000000000002 0 #
vertex $-1 -1 -1 $-1 $227 $406 #
straight-curve $-1 -1 -1 $-1 -0.059999999999999998 -0.40000000000000002 0 0 1 0 I I #
vertex $-1 -1 -1 $-1 $321 $407 #
straight-curve $-1 -1 -1 $-1 0 0.40000000000000002 0 0 -1 0 I I #
point $-1 -1 -1 $-1 0 -0.40000000000000002 0 #
point $-1 -1 -1 $-1 -0.059999999999999998 -0.40000000000000002 0 #
coedge $-1 -1 -1 $-1 $234 $232 $-1 $408 reversed $117 $-1 #
edge $-1 -1 -1 $-1 $409 0 $330 0.14000000000000001 $232 $410 forward @7 unknown T -0.14000000000000001 0.40000000000000002 0 0 0.40000000000000002 0 #
vertex $-1 -1 -1 $-1 $329 $411 #
straight-curve $-1 -1 -1 $-1 0 0.40000000000000002 0 0 1 0 I I #
edge $-1 -1 -1 $-1 $333 0 $412 0.059999999999999998 $234 $413 forward @7 unknown T -0.20000000000000001 0.32000000000000006 0 -0.14000000000000001 0.32000000000000006 0 #
vertex $-1 -1 -1 $-1 $235 $414 #
straight-curve $-1 -1 -1 $-1 -0.20000000000000001 0.46000000000000008 0 0 -1 0 I I #
point $-1 -1 -1 $-1 0 0.46000000000000008 0 #
point $-1 -1 -1 $-1 -0.20000000000000001 0.46000000000000008 0 #
coedge $-1 -1 -1 $-1 $241 $239 $-1 $415 reversed $120 $-1 #
edge $-1 -1 -1 $-1 $416 0 $339 0.14000000000000001 $239 $417 forward @7 unknown T -0.14000000000000001 -0.63 0 0 -0.63 0 #
vertex $-1 -1 -1 $-1 $338 $418 #
straight-curve $-1 -1 -1 $-1 0 -0.63 0 0 1 0 I I #
edge $-1 -1 -1 $-1 $342 0 $419 0.059999999999999998 $241 $420 forward @7 unknown T -0.20000000000000001 -0.70999999999999996 0 -0.14000000000000001 -0.70999999999999996 0 #
vertex $-1 -1 -1 $-1 $242 $421 #
straight-curve $-1 -1 -1 $-1 -0.20000000000000001 -0.56999999999999995 0 0 -1 0 I I #
point $-1 -1 -1 $-1 0 -0.56999999999999995 0 #
point $-1 -1 -1 $-1 -0.20000000000000001 -0.56999999999999995 0 #
coedge $-1 -1 -1 $-1 $248 $246 $-1 $422 reversed $123 $-1 #
edge $-1 -1 -1 $-1 $423 0 $348 0.14000000000000001 $246 $424 forward @7 unknown T -0.14000000000000001 0.63 -7.7152748346283254e-017 0 0.63 -7.7152748346283254e-017 #
vertex $-1 -1 -1 $-1 $347 $425 #
straight-curve $-1 -1 -1 $-1 0 0.63 -7.7152748346283254e-017 0 -1 1.2246467991473532e-016 I I #
edge $-1 -1 -1 $-1 $351 0 $426 0.059999999999999998 $248 $427 forward @7 unknown T -0.20000000000000001 0.70999999999999996 -8.694992273946207e-017 -0.14000000000000001 0.70999999999999996 -8.694992273946207e-017 #
vertex $-1 -1 -1 $-1 $249 $428 #
straight-curve $-1 -1 -1 $-1 -0.20000000000000001 0.56999999999999995 -6.9804867551399126e-017 0 1 -1.2246467991473532e-016 I I #
point $-1 -1 -1 $-1 0 0.56999999999999995 -6.9804867551399126e-017 #
point $-1 -1 -1 $-1 -0.20000000000000001 0.56999999999999995 -6.9804867551399126e-017 #
straight-curve $-1 -1 -1 $-1 0.30000000000000004 1 0 -1 0 0 I I #
point $-1 -1 -1 $-1 0.30000000000000004 1 0 #
point $-1 -1 -1 $-1 0 1 0 #
edge $-1 -1 -1 $-1 $362 0 $359 0.07999999999999996 $260 $429 forward @7 unknown T -0.14000000000000001 0.8600000000000001 0 -0.14000000000000001 0.94000000000000017 0 #
vertex $-1 -1 -1 $-1 $358 $430 #
straight-curve $-1 -1 -1 $-1 -0.14000000000000001 0.94000000000000017 0 1 0 0 I I #
point $-1 -1 -1 $-1 0 0.94000000000000017 0 #
vertex $-1 -1 -1 $-1 $264 $431 #
straight-curve $-1 -1 -1 $-1 -0.20000000000000001 0.8600000000000001 0 1 0 0 I I #
point $-1 -1 -1 $-1 -0.20000000000000001 0.8600000000000001 0 #
straight-curve $-1 -1 -1 $-1 0 0.94000000000000017 0 0 -1 0 I I #
point $-1 -1 -1 $-1 0 0.94000000000000017 0 #
point $-1 -1 -1 $-1 0 0.63 0 #
coedge $-1 -1 -1 $-1 $432 $276 $-1 $433 forward $99 $-1 #
edge $-1 -1 -1 $-1 $370 0 $434 0.089999999999999969 $276 $435 forward @7 unknown T -0.20000000000000001 0.8600000000000001 0 -0.20000000000000001 0.95000000000000007 0 #
vertex $-1 -1 -1 $-1 $277 $436 #
straight-curve $-1 -1 -1 $-1 -0.26000000000000001 0.95000000000000007 0 1 0 0 I I #
point $-1 -1 -1 $-1 -0.26000000000000001 0.95000000000000007 0 #
coedge $-1 -1 -1 $-1 $280 $437 $-1 $438 forward $99 $-1 #
edge $-1 -1 -1 $-1 $439 0 $375 0.080000000000000071 $280 $440 forward @7 unknown T -0.14000000000000001 0.63 0 -0.14000000000000001 0.71000000000000008 0 #
vertex $-1 -1 -1 $-1 $374 $441 #
straight-curve $-1 -1 -1 $-1 -0.14000000000000001 0.71000000000000008 0 -1 0 0 I I #
point $-1 -1 -1 $-1 -0.20000000000000001 0.71000000000000008 0 #
edge $-1 -1 -1 $-1 $379 0 $382 0.07999999999999996 $286 $442 forward @7 unknown T -0.14000000000000001 -0.93999999999999995 0 -0.14000000000000001 -0.85999999999999999 0 #
vertex $-1 -1 -1 $-1 $287 $443 #
straight-curve $-1 -1 -1 $-1 -0.20000000000000001 -0.85999999999999999 0 1 0 0 I I #
point $-1 -1 -1 $-1 -0.20000000000000001 -0.85999999999999999 0 #
vertex $-1 -1 -1 $-1 $378 $444 #
straight-curve $-1 -1 -1 $-1 -0.14000000000000001 -0.93999999999999995 0 1 0 0 I I #
point $-1 -1 -1 $-1 0 -0.93999999999999995 0 #
edge $-1 -1 -1 $-1 $389 0 $386 0.07999999999999996 $295 $445 forward @7 unknown T -0.14000000000000001 -0.40000000000000002 -8.694992273946207e-017 -0.14000000000000001 -0.32000000000000006 -7.7152748346283254e-017 #
vertex $-1 -1 -1 $-1 $385 $446 #
straight-curve $-1 -1 -1 $-1 -0.14000000000000001 -0.40000000000000002 -7.7152748346283254e-017 1 0 0 I I #
point $-1 -1 -1 $-1 0 -0.40000000000000002 -7.7152748346283254e-017 #
vertex $-1 -1 -1 $-1 $299 $447 #
straight-curve $-1 -1 -1 $-1 -0.20000000000000001 -0.32000000000000006 -8.694992273946207e-017 1 0 0 I I #
point $-1 -1 -1 $-1 -0.20000000000000001 -0.32000000000000006 -8.694992273946207e-017 #
straight-curve $-1 -1 -1 $-1 0 -0.63 0 0 -1 0 I I #
point $-1 -1 -1 $-1 0 -0.63 0 #
point $-1 -1 -1 $-1 0 -0.93999999999999995 0 #
coedge $-1 -1 -1 $-1 $448 $311 $-1 $449 forward $111 $-1 #
edge $-1 -1 -1 $-1 $397 0 $450 0.089999999999999969 $311 $451 forward @7 unknown T -0.20000000000000001 -0.70999999999999996 0 -0.20000000000000001 -0.62 0 #
vertex $-1 -1 -1 $-1 $312 $452 #
straight-curve $-1 -1 -1 $-1 -0.26000000000000001 -0.62 0 1 0 0 I I #
point $-1 -1 -1 $-1 -0.26000000000000001 -0.62 0 #
coedge $-1 -1 -1 $-1 $315 $453 $-1 $454 forward $111 $-1 #
edge $-1 -1 -1 $-1 $455 0 $402 0.07999999999999996 $315 $456 forward @7 unknown T -0.14000000000000001 -0.93999999999999995 0 -0.14000000000000001 -0.85999999999999999 0 #
vertex $-1 -1 -1 $-1 $401 $457 #
straight-curve $-1 -1 -1 $-1 -0.14000000000000001 -0.85999999999999999 0 -1 0 0 I I #
point $-1 -1 -1 $-1 -0.20000000000000001 -0.85999999999999999 0 #
straight-curve $-1 -1 -1 $-1 -0.059999999999999998 0.40000000000000002 0 1 0 0 I I #
point $-1 -1 -1 $-1 -0.059999999999999998 0.40000000000000002 0 #
point $-1 -1 -1 $-1 0 0.40000000000000002 0 #
edge $-1 -1 -1 $-1 $412 0 $409 0.07999999999999996 $328 $458 forward @7 unknown T -0.14000000000000001 0.32000000000000006 0 -0.14000000000000001 0.40000000000000002 0 #
vertex $-1 -1 -1 $-1 $408 $459 #
straight-curve $-1 -1 -1 $-1 -0.14000000000000001 0.40000000000000002 0 1 0 0 I I #
point $-1 -1 -1 $-1 0 0.40000000000000002 0 #
vertex $-1 -1 -1 $-1 $332 $460 #
straight-curve $-1 -1 -1 $-1 -0.20000000000000001 0.32000000000000006 0 1 0 0 I I #
point $-1 -1 -1 $-1 -0.20000000000000001 0.32000000000000006 0 #
edge $-1 -1 -1 $-1 $419 0 $416 0.07999999999999996 $337 $461 forward @7 unknown T -0.14000000000000001 -0.70999999999999996 0 -0.14000000000000001 -0.63 0 #
vertex $-1 -1 -1 $-1 $415 $462 #
straight-curve $-1 -1 -1 $-1 -0.14000000000000001 -0.63 0 1 0 0 I I #
point $-1 -1 -1 $-1 0 -0.63 0 #
vertex $-1 -1 -1 $-1 $341 $463 #
straight-curve $-1 -1 -1 $-1 -0.20000000000000001 -0.70999999999999996 0 1 0 0 I I #
point $-1 -1 -1 $-1 -0.20000000000000001 -0.70999999999999996 0 #
edge $-1 -1 -1 $-1 $426 0 $423 0.07999999999999996 $346 $464 forward @7 unknown T -0.14000000000000001 0.63 -8.694992273946207e-017 -0.14000000000000001 0.70999999999999996 -7.7152748346283254e-017 #
vertex $-1 -1 -1 $-1 $422 $465 #
straight-curve $-1 -1 -1 $-1 -0.14000000000000001 0.63 -7.7152748346283254e-017 1 0 0 I I #
point $-1 -1 -1 $-1 0 0.63 -7.7152748346283254e-017 #
vertex $-1 -1 -1 $-1 $350 $466 #
straight-curve $-1 -1 -1 $-1 -0.20000000000000001 0.70999999999999996 -8.694992273946207e-017 1 0 0 I I #
point $-1 -1 -1 $-1 -0.20000000000000001 0.70999999999999996 -8.694992273946207e-017 #
straight-curve $-1 -1 -1 $-1 -0.14000000000000001 0.8600000000000001 0 0 1 0 I I #
point $-1 -1 -1 $-1 -0.14000000000000001 0.94000000000000017 0 #
point $-1 -1 -1 $-1 -0.14000000000000001 0.8600000000000001 0 #
coedge $-1 -1 -1 $-1 $467 $368 $-1 $468 forward $99 $-1 #
edge $-1 -1 -1 $-1 $434 0 $469 0.059999999999999998 $368 $470 forward @7 unknown T -0.20000000000000001 0.8600000000000001 0 -0.14000000000000001 0.8600000000000001 0 #
vertex $-1 -1 -1 $-1 $369 $471 #
straight-curve $-1 -1 -1 $-1 -0.20000000000000001 0.95000000000000007 0 0 -1 0 I I #
point $-1 -1 -1 $-1 -0.20000000000000001 0.95000000000000007 0 #
coedge $-1 -1 -1 $-1 $373 $467 $-1 $472 forward $99 $-1 #
edge $-1 -1 -1 $-1 $473 0 $439 0.070000000000000007 $373 $474 forward @7 unknown T -0.14000000000000001 0.63 0 -0.070000000000000007 0.63 0 #
vertex $-1 -1 -1 $-1 $438 $475 #
straight-curve $-1 -1 -1 $-1 -0.14000000000000001 0.63 0 0 1 0 I I #
point $-1 -1 -1 $-1 -0.14000000000000001 0.71000000000000008 0 #
straight-curve $-1 -1 -1 $-1 -0.14000000000000001 -0.85999999999999999 0 0 -1 0 I I #
point $-1 -1 -1 $-1 -0.14000000000000001 -0.85999999999999999 0 #
point $-1 -1 -1 $-1 -0.14000000000000001 -0.93999999999999995 0 #
straight-curve $-1 -1 -1 $-1 -0.14000000000000001 -0.32000000000000006 -8.694992273946207e-017 0 -1 1.2246467991473532e-016 I I #
point $-1 -1 -1 $-1 -0.14000000000000001 -0.40000000000000002 -7.7152748346283254e-017 #
point $-1 -1 -1 $-1 -0.14000000000000001 -0.32000000000000006 -8.694992273946207e-017 #
coedge $-1 -1 -1 $-1 $476 $395 $-1 $477 forward $111 $-1 #
edge $-1 -1 -1 $-1 $450 0 $478 0.059999999999999998 $395 $479 forward @7 unknown T -0.20000000000000001 -0.70999999999999996 0 -0.14000000000000001 -0.70999999999999996 0 #
vertex $-1 -1 -1 $-1 $396 $480 #
straight-curve $-1 -1 -1 $-1 -0.20000000000000001 -0.62 0 0 -1 0 I I #
point $-1 -1 -1 $-1 -0.20000000000000001 -0.62 0 #
coedge $-1 -1 -1 $-1 $400 $476 $-1 $481 forward $111 $-1 #
edge $-1 -1 -1 $-1 $482 0 $455 0.070000000000000007 $400 $483 forward @7 unknown T -0.14000000000000001 -0.93999999999999995 0 -0.070000000000000007 -0.93999999999999995 0 #
vertex $-1 -1 -1 $-1 $454 $484 #
straight-curve $-1 -1 -1 $-1 -0.14000000000000001 -0.93999999999999995 0 0 1 0 I I #
point $-1 -1 -1 $-1 -0.14000000000000001 -0.85999999999999999 0 #
straight-curve $-1 -1 -1 $-1 -0.14000000000000001 0.32000000000000006 0 0 1 0 I I #
point $-1 -1 -1 $-1 -0.14000000000000001 0.40000000000000002 0 #
point $-1 -1 -1 $-1 -0.14000000000000001 0.32000000000000006 0 #
straight-curve $-1 -1 -1 $-1 -0.14000000000000001 -0.70999999999999996 0 0 1 0 I I #
point $-1 -1 -1 $-1 -0.14000000000000001 -0.63 0 #
point $-1 -1 -1 $-1 -0.14000000000000001 -0.70999999999999996 0 #
straight-curve $-1 -1 -1 $-1 -0.14000000000000001 0.70999999999999996 -8.694992273946207e-017 0 -1 1.2246467991473532e-016 I I #
point $-1 -1 -1 $-1 -0.14000000000000001 0.63 -7.7152748346283254e-017 #
point $-1 -1 -1 $-1 -0.14000000000000001 0.70999999999999996 -8.694992273946207e-017 #
coedge $-1 -1 -1 $-1 $437 $432 $-1 $485 forward $99 $-1 #
edge $-1 -1 -1 $-1 $469 0 $486 0.080000000000000071 $432 $487 forward @7 unknown T -0.14000000000000001 0.8600000000000001 0 -0.14000000000000001 0.94000000000000017 0 #
vertex $-1 -1 -1 $-1 $433 $488 #
straight-curve $-1 -1 -1 $-1 -0.20000000000000001 0.8600000000000001 0 1 0 0 I I #
point $-1 -1 -1 $-1 -0.20000000000000001 0.8600000000000001 0 #
edge $-1 -1 -1 $-1 $489 0 $473 0.31000000000000016 $437 $490 forward @7 unknown T -0.070000000000000007 0.63 0 -0.070000000000000007 0.94000000000000017 0 #
vertex $-1 -1 -1 $-1 $472 $491 #
straight-curve $-1 -1 -1 $-1 -0.070000000000000007 0.63 0 -1 0 0 I I #
point $-1 -1 -1 $-1 -0.14000000000000001 0.63 0 #
coedge $-1 -1 -1 $-1 $453 $448 $-1 $492 forward $111 $-1 #
edge $-1 -1 -1 $-1 $478 0 $493 0.07999999999999996 $448 $494 forward @7 unknown T -0.14000000000000001 -0.70999999999999996 0 -0.14000000000000001 -0.63 0 #
vertex $-1 -1 -1 $-1 $449 $495 #
straight-curve $-1 -1 -1 $-1 -0.20000000000000001 -0.70999999999999996 0 1 0 0 I I #
point $-1 -1 -1 $-1 -0.20000000000000001 -0.70999999999999996 0 #
edge $-1 -1 -1 $-1 $496 0 $482 0.30999999999999994 $453 $497 forward @7 unknown T -0.070000000000000007 -0.93999999999999995 0 -0.070000000000000007 -0.63 0 #
vertex $-1 -1 -1 $-1 $481 $498 #
straight-curve $-1 -1 -1 $-1 -0.070000000000000007 -0.93999999999999995 0 -1 0 0 I I #
point $-1 -1 -1 $-1 -0.14000000000000001 -0.93999999999999995 0 #
edge $-1 -1 -1 $-1 $486 0 $489 0.070000000000000007 $467 $499 forward @7 unknown T -0.14000000000000001 0.94000000000000017 0 -0.070000000000000007 0.94000000000000017 0 #
vertex $-1 -1 -1 $-1 $468 $500 #
straight-curve $-1 -1 -1 $-1 -0.14000000000000001 0.8600000000000001 0 0 1 0 I I #
point $-1 -1 -1 $-1 -0.14000000000000001 0.8600000000000001 0 #
vertex $-1 -1 -1 $-1 $485 $501 #
straight-curve $-1 -1 -1 $-1 -0.070000000000000007 0.94000000000000017 0 0 -1 0 I I #
point $-1 -1 -1 $-1 -0.070000000000000007 0.63 0 #
edge $-1 -1 -1 $-1 $493 0 $496 0.070000000000000007 $476 $502 forward @7 unknown T -0.14000000000000001 -0.63 0 -0.070000000000000007 -0.63 0 #
vertex $-1 -1 -1 $-1 $477 $503 #
straight-curve $-1 -1 -1 $-1 -0.14000000000000001 -0.70999999999999996 0 0 1 0 I I #
point $-1 -1 -1 $-1 -0.14000000000000001 -0.70999999999999996 0 #
vertex $-1 -1 -1 $-1 $492 $504 #
straight-curve $-1 -1 -1 $-1 -0.070000000000000007 -0.63 0 0 -1 0 I I #
point $-1 -1 -1 $-1 -0.070000000000000007 -0.93999999999999995 0 #
straight-curve $-1 -1 -1 $-1 -0.14000000000000001 0.94000000000000017 0 1 0 0 I I #
point $-1 -1 -1 $-1 -0.14000000000000001 0.94000000000000017 0 #
point $-1 -1 -1 $-1 -0.070000000000000007 0.94000000000000017 0 #
straight-curve $-1 -1 -1 $-1 -0.14000000000000001 -0.63 0 1 0 0 I I #
point $-1 -1 -1 $-1 -0.14000000000000001 -0.63 0 #
point $-1 -1 -1 $-1 -0.070000000000000007 -0.63 0 #
End-of-ACIS-data 