  0
SECTION
  2
ENTITIES
  0
POLYLINE
  8
HEMT
  5
1
 66
1
 10
0.0
 20
0.0
 30
0.0
 70
1
  0
VERTEX
  8
HEMT
  5
2
 10
0.0
 20
0.34
  0
VERTEX
  8
HEMT
  5
3
 10
0.0
 20
0.94
  0
SEQEND
  8
HEMT
  5
4
  0
POLYLINE
  8
HEMT
  5
5
 66
1
 10
0.0
 20
0.0
 30
0.0
 70
1
  0
VERTEX
  8
HEMT
  5
6
 10
0.0
 20
-0.14
  0
VERTEX
  8
HEMT
  5
7
 10
0.0
 20
0.14
  0
SEQEND
  8
HEMT
  5
8
  0
POLYLINE
  8
HEMT
  5
9
 66
1
 10
0.0
 20
0.0
 30
0.0
 70
1
  0
VERTEX
  8
HEMT
  5
A
 10
0.0
 20
-0.94
  0
VERTEX
  8
HEMT
  5
B
 10
0.0
 20
-0.34
  0
SEQEND
  8
HEMT
  5
C
  0
POLYLINE
  8
HEMT
  5
D
 66
1
 10
0.0
 20
0.0
 30
0.0
 70
1
  0
VERTEX
  8
HEMT
  5
E
 10
0.3
 20
-1.0
  0
VERTEX
  8
HEMT
  5
F
 10
0.0
 20
-1.0
  0
VERTEX
  8
HEMT
  5
10
 10
0.0
 20
1.0
  0
VERTEX
  8
HEMT
  5
11
 10
0.3
 20
1.0
  0
SEQEND
  8
HEMT
  5
12
  0
POLYLINE
  8
HEMT
  5
13
 66
1
 10
0.0
 20
0.0
 30
0.0
 70
1
  0
VERTEX
  8
HEMT
  5
14
 10
-0.14
 20
0.34
  0
VERTEX
  8
HEMT
  5
15
 10
-0.14
 20
0.94
  0
VERTEX
  8
HEMT
  5
16
 10
0.0
 20
0.94
  0
VERTEX
  8
HEMT
  5
17
 10
0.0
 20
0.34
  0
SEQEND
  8
HEMT
  5
18
  0
POLYLINE
  8
HEMT
  5
19
 66
1
 10
0.0
 20
0.0
 30
0.0
 70
1
  0
VERTEX
  8
HEMT
  5
1A
 10
-0.14
 20
-0.14
  0
VERTEX
  8
HEMT
  5
1B
 10
-0.14
 20
0.14
  0
VERTEX
  8
HEMT
  5
1C
 10
0.0
 20
0.14
  0
VERTEX
  8
HEMT
  5
1D
 10
0.0
 20
-0.14
  0
SEQEND
  8
HEMT
  5
1E
  0
POLYLINE
  8
HEMT
  5
1F
 66
1
 10
0.0
 20
0.0
 30
0.0
 70
1
  0
VERTEX
  8
HEMT
  5
20
 10
-0.14
 20
-0.94
  0
VERTEX
  8
HEMT
  5
21
 10
-0.14
 20
-0.34
  0
VERTEX
  8
HEMT
  5
22
 10
0.0
 20
-0.34
  0
VERTEX
  8
HEMT
  5
23
 10
0.0
 20
-0.94
  0
SEQEND
  8
HEMT
  5
24
  0
POLYLINE
  8
HEMT
  5
25
 66
1
 10
0.0
 20
0.0
 30
0.0
 70
1
  0
VERTEX
  8
HEMT
  5
26
 10
-0.2
 20
1.0
  0
VERTEX
  8
HEMT
  5
27
 10
0.0
 20
1.0
  0
VERTEX
  8
HEMT
  5
28
 10
0.0
 20
0.94
  0
VERTEX
  8
HEMT
  5
29
 10
-0.14
 20
0.94
  0
VERTEX
  8
HEMT
  5
2A
 10
-0.14
 20
0.86
  0
VERTEX
  8
HEMT
  5
2B
 10
-0.2
 20
0.86
  0
SEQEND
  8
HEMT
  5
2C
  0
POLYLINE
  8
HEMT
  5
2D
 66
1
 10
0.0
 20
0.0
 30
0.0
 70
1
  0
VERTEX
  8
HEMT
  5
2E
 10
-0.14
 20
0.28
  0
VERTEX
  8
HEMT
  5
2F
 10
-0.2
 20
0.28
  0
VERTEX
  8
HEMT
  5
30
 10
-0.2
 20
0.42
  0
VERTEX
  8
HEMT
  5
31
 10
-0.14
 20
0.42
  0
VERTEX
  8
HEMT
  5
32
 10
-0.14
 20
0.34
  0
VERTEX
  8
HEMT
  5
33
 10
0.0
 20
0.34
  0
VERTEX
  8
HEMT
  5
34
 10
0.0
 20
0.14
  0
VERTEX
  8
HEMT
  5
35
 10
-0.14
 20
0.14
  0
VERTEX
  8
HEMT
  5
36
 10
-0.14
 20
0.06
  0
VERTEX
  8
HEMT
  5
37
 10
-0.2
 20
0.06
  0
VERTEX
  8
HEMT
  5
38
 10
-0.2
 20
0.2
  0
VERTEX
  8
HEMT
  5
39
 10
-0.14
 20
0.2
  0
SEQEND
  8
HEMT
  5
3A
  0
POLYLINE
  8
HEMT
  5
3B
 66
1
 10
0.0
 20
0.0
 30
0.0
 70
1
  0
VERTEX
  8
HEMT
  5
3C
 10
-0.2
 20
-0.28
  0
VERTEX
  8
HEMT
  5
3D
 10
-0.14
 20
-0.28
  0
VERTEX
  8
HEMT
  5
3E
 10
-0.14
 20
-0.2
  0
VERTEX
  8
HEMT
  5
3F
 10
-0.2
 20
-0.2
  0
VERTEX
  8
HEMT
  5
40
 10
-0.2
 20
-0.06
  0
VERTEX
  8
HEMT
  5
41
 10
-0.14
 20
-0.06
  0
VERTEX
  8
HEMT
  5
42
 10
-0.14
 20
-0.14
  0
VERTEX
  8
HEMT
  5
43
 10
0.0
 20
-0.14
  0
VERTEX
  8
HEMT
  5
44
 10
0.0
 20
-0.34
  0
VERTEX
  8
HEMT
  5
45
 10
-0.14
 20
-0.34
  0
VERTEX
  8
HEMT
  5
46
 10
-0.14
 20
-0.42
  0
VERTEX
  8
HEMT
  5
47
 10
-0.2
 20
-0.42
  0
SEQEND
  8
HEMT
  5
48
  0
POLYLINE
  8
HEMT
  5
49
 66
1
 10
0.0
 20
0.0
 30
0.0
 70
1
  0
VERTEX
  8
HEMT
  5
4A
 10
0.0
 20
-1.0
  0
VERTEX
  8
HEMT
  5
4B
 10
-0.2
 20
-1.0
  0
VERTEX
  8
HEMT
  5
4C
 10
-0.2
 20
-0.86
  0
VERTEX
  8
HEMT
  5
4D
 10
-0.14
 20
-0.86
  0
VERTEX
  8
HEMT
  5
4E
 10
-0.14
 20
-0.94
  0
VERTEX
  8
HEMT
  5
4F
 10
0.0
 20
-0.94
  0
SEQEND
  8
HEMT
  5
50
  0
ENDSEC
  0
EOF
